<svg xmlns="http://www.w3.org/2000/svg" width="172" height="172" viewBox="0 0 172 172"><g id="bb53e9a6-a212-4fc3-b2fa-604b34e06f3a" data-name="Layer 2"><path id="f9b65c8f-27b1-4e8f-b565-1e8f31079a0e" data-name="Border" d="M129.94,182H62.06C39.43,182,22,182,16,176s-6-23.43-6-46.06V62.07C10,39.43,10,22,16,16s23.43-6,46.06-6h67.88C152.57,10,170,10,176,16s6,23.43,6,46.07V130c0,22.61,0,40.06-6,46S152.57,182,129.94,182Z" transform="translate(-10 -10)" style="fill:#fff"/><polygon points="134 6 134 6 24.01 6 24.01 130 38 130 38 39.76 37.97 39.76 37.97 22.02 38 22.02 38 20.02 162 20.02 134 6"/><polygon points="152 38.02 152 162 166 134 166 24.02 41.98 24.02 41.98 38.02 132.25 38.02 133.98 38.02 148 38.02 150 38.02 152 38.02"/><polygon points="133.98 42.03 133.98 132.25 133.98 134 133.98 148 134 148 134 152 10 152 37.97 166 148 166 148 42.03 133.98 42.03"/><polygon points="39.75 134 39.75 134 22.01 134 22.01 134 20.01 134 20.01 10 6 38 6 148 129.97 148 129.97 134 39.75 134"/></g><g id="aef5b6fd-617e-4902-88e3-7ceec49b0ce3" data-name="Layer 3"><path d="M82.34,100.85a1.89,1.89,0,0,1-1.37-.5A1.82,1.82,0,0,1,80.46,99a1.88,1.88,0,1,1,3.76,0,1.82,1.82,0,0,1-.51,1.36A1.89,1.89,0,0,1,82.34,100.85Z" transform="translate(-10 -10)"/><path d="M90.2,100.65v-11h2.44v2.1h.06a2.53,2.53,0,0,1,1-1.69,3.24,3.24,0,0,1,2-.61,3.52,3.52,0,0,1,2.72,1.11,4.31,4.31,0,0,1,1,3v.9H96.82v-.72a2.26,2.26,0,0,0-.53-1.59,2,2,0,0,0-1.53-.57c-1.37,0-2.06.77-2.06,2.3v6.74Z" transform="translate(-10 -10)"/><path d="M105.92,100.83a5.87,5.87,0,0,1-2.22-.39,3.35,3.35,0,0,1-1.49-1.11,2.82,2.82,0,0,1-.53-1.7h2.52a1,1,0,0,0,.47.89,2.25,2.25,0,0,0,1.27.31h.86a2.33,2.33,0,0,0,1.4-.34,1.1,1.1,0,0,0,.46-.94c0-.76-.57-1.23-1.7-1.4l-1.54-.2q-3.47-.49-3.46-3.3A2.81,2.81,0,0,1,103,90.28a4.93,4.93,0,0,1,3-.81h.76a5,5,0,0,1,3,.83,2.59,2.59,0,0,1,1.13,2.19h-2.52a.85.85,0,0,0-.42-.75,2.22,2.22,0,0,0-1.2-.27H106c-1.09,0-1.64.39-1.64,1.18s.49,1.09,1.46,1.24l1.56.24a5.1,5.1,0,0,1,2.77,1.08,2.91,2.91,0,0,1,.91,2.28A3,3,0,0,1,110,100a5,5,0,0,1-3.21.88Z" transform="translate(-10 -10)"/></g></svg>